%TF.GenerationSoftware,KiCad,Pcbnew,8.0.6-8.0.6-0~ubuntu20.04.1*%
%TF.CreationDate,2024-11-12T17:29:03+05:30*%
%TF.ProjectId,High_AMP_BLDC_Control,48696768-5f41-44d5-905f-424c44435f43,rev?*%
%TF.SameCoordinates,Original*%
%TF.FileFunction,Legend,Top*%
%TF.FilePolarity,Positive*%
%FSLAX46Y46*%
G04 Gerber Fmt 4.6, Leading zero omitted, Abs format (unit mm)*
G04 Created by KiCad (PCBNEW 8.0.6-8.0.6-0~ubuntu20.04.1) date 2024-11-12 17:29:03*
%MOMM*%
%LPD*%
G01*
G04 APERTURE LIST*
%ADD10C,0.150000*%
G04 APERTURE END LIST*
D10*
X91004819Y-91599166D02*
X90528628Y-91932499D01*
X91004819Y-92170594D02*
X90004819Y-92170594D01*
X90004819Y-92170594D02*
X90004819Y-91789642D01*
X90004819Y-91789642D02*
X90052438Y-91694404D01*
X90052438Y-91694404D02*
X90100057Y-91646785D01*
X90100057Y-91646785D02*
X90195295Y-91599166D01*
X90195295Y-91599166D02*
X90338152Y-91599166D01*
X90338152Y-91599166D02*
X90433390Y-91646785D01*
X90433390Y-91646785D02*
X90481009Y-91694404D01*
X90481009Y-91694404D02*
X90528628Y-91789642D01*
X90528628Y-91789642D02*
X90528628Y-92170594D01*
X90338152Y-90742023D02*
X91004819Y-90742023D01*
X89957200Y-90980118D02*
X90671485Y-91218213D01*
X90671485Y-91218213D02*
X90671485Y-90599166D01*
X91004819Y-80099166D02*
X90528628Y-80432499D01*
X91004819Y-80670594D02*
X90004819Y-80670594D01*
X90004819Y-80670594D02*
X90004819Y-80289642D01*
X90004819Y-80289642D02*
X90052438Y-80194404D01*
X90052438Y-80194404D02*
X90100057Y-80146785D01*
X90100057Y-80146785D02*
X90195295Y-80099166D01*
X90195295Y-80099166D02*
X90338152Y-80099166D01*
X90338152Y-80099166D02*
X90433390Y-80146785D01*
X90433390Y-80146785D02*
X90481009Y-80194404D01*
X90481009Y-80194404D02*
X90528628Y-80289642D01*
X90528628Y-80289642D02*
X90528628Y-80670594D01*
X90100057Y-79718213D02*
X90052438Y-79670594D01*
X90052438Y-79670594D02*
X90004819Y-79575356D01*
X90004819Y-79575356D02*
X90004819Y-79337261D01*
X90004819Y-79337261D02*
X90052438Y-79242023D01*
X90052438Y-79242023D02*
X90100057Y-79194404D01*
X90100057Y-79194404D02*
X90195295Y-79146785D01*
X90195295Y-79146785D02*
X90290533Y-79146785D01*
X90290533Y-79146785D02*
X90433390Y-79194404D01*
X90433390Y-79194404D02*
X91004819Y-79765832D01*
X91004819Y-79765832D02*
X91004819Y-79146785D01*
X82404819Y-80099166D02*
X81928628Y-80432499D01*
X82404819Y-80670594D02*
X81404819Y-80670594D01*
X81404819Y-80670594D02*
X81404819Y-80289642D01*
X81404819Y-80289642D02*
X81452438Y-80194404D01*
X81452438Y-80194404D02*
X81500057Y-80146785D01*
X81500057Y-80146785D02*
X81595295Y-80099166D01*
X81595295Y-80099166D02*
X81738152Y-80099166D01*
X81738152Y-80099166D02*
X81833390Y-80146785D01*
X81833390Y-80146785D02*
X81881009Y-80194404D01*
X81881009Y-80194404D02*
X81928628Y-80289642D01*
X81928628Y-80289642D02*
X81928628Y-80670594D01*
X82404819Y-79146785D02*
X82404819Y-79718213D01*
X82404819Y-79432499D02*
X81404819Y-79432499D01*
X81404819Y-79432499D02*
X81547676Y-79527737D01*
X81547676Y-79527737D02*
X81642914Y-79622975D01*
X81642914Y-79622975D02*
X81690533Y-79718213D01*
X84504819Y-91234166D02*
X84028628Y-91567499D01*
X84504819Y-91805594D02*
X83504819Y-91805594D01*
X83504819Y-91805594D02*
X83504819Y-91424642D01*
X83504819Y-91424642D02*
X83552438Y-91329404D01*
X83552438Y-91329404D02*
X83600057Y-91281785D01*
X83600057Y-91281785D02*
X83695295Y-91234166D01*
X83695295Y-91234166D02*
X83838152Y-91234166D01*
X83838152Y-91234166D02*
X83933390Y-91281785D01*
X83933390Y-91281785D02*
X83981009Y-91329404D01*
X83981009Y-91329404D02*
X84028628Y-91424642D01*
X84028628Y-91424642D02*
X84028628Y-91805594D01*
X83504819Y-90900832D02*
X83504819Y-90281785D01*
X83504819Y-90281785D02*
X83885771Y-90615118D01*
X83885771Y-90615118D02*
X83885771Y-90472261D01*
X83885771Y-90472261D02*
X83933390Y-90377023D01*
X83933390Y-90377023D02*
X83981009Y-90329404D01*
X83981009Y-90329404D02*
X84076247Y-90281785D01*
X84076247Y-90281785D02*
X84314342Y-90281785D01*
X84314342Y-90281785D02*
X84409580Y-90329404D01*
X84409580Y-90329404D02*
X84457200Y-90377023D01*
X84457200Y-90377023D02*
X84504819Y-90472261D01*
X84504819Y-90472261D02*
X84504819Y-90757975D01*
X84504819Y-90757975D02*
X84457200Y-90853213D01*
X84457200Y-90853213D02*
X84409580Y-90900832D01*
M02*
